<svg width="30" height="30" viewBox="0 0 30 30" fill="none" xmlns="http://www.w3.org/2000/svg">
<path d="M18.5258 29.0019H18.4712V7.4857C18.4712 7.2101 18.2478 6.98665 17.9722 6.98665C17.6966 6.98665 17.4731 7.2101 17.4731 7.4857V8.00034H16.9741V6.00933C17.2497 6.00933 17.4731 5.78588 17.4731 5.51029C17.4731 5.23469 17.2497 5.01124 16.9741 5.01124H16.4958V3.0047C16.4958 2.35488 16.0792 1.80075 15.499 1.59477V0.499047C15.499 0.223448 15.2756 0 15 0C14.7244 0 14.5009 0.223448 14.5009 0.499047V1.59477C13.9208 1.80069 13.5041 2.35481 13.5041 3.0047V5.0113H12.9817C12.7061 5.0113 12.4827 5.23475 12.4827 5.51035C12.4827 5.78595 12.7061 6.00939 12.9817 6.00939V8.0004H12.4827V7.4857C12.4827 7.2101 12.2592 6.98665 11.9836 6.98665C11.708 6.98665 11.4846 7.2101 11.4846 7.4857V29.0019H11.4741C11.1985 29.0019 10.9751 29.2254 10.9751 29.501C10.9751 29.7766 11.1985 30 11.4741 30H18.5258C18.8014 30 19.0248 29.7766 19.0248 29.501C19.0248 29.2254 18.8014 29.0019 18.5258 29.0019ZM14.5022 3.50374H15.4977V5.0113H14.5022V3.50374ZM13.9798 6.01601C13.9876 6.01638 13.9953 6.01719 14.0032 6.01719C14.0323 6.01719 14.0606 6.0142 14.0884 6.00939H15.9115C15.9326 6.01301 15.9541 6.01526 15.976 6.01613V8.00034H15.499V7.00487C15.499 6.72927 15.2756 6.50582 15 6.50582C14.7244 6.50582 14.5009 6.72927 14.5009 7.00487V8.00034H13.9798V6.01601ZM17.4731 8.99843V12.0057H16.9735C16.9736 12.0013 16.9741 11.9971 16.9741 11.9927V10.5112C16.9741 10.2356 16.7506 10.0121 16.475 10.0121C16.1994 10.0121 15.976 10.2356 15.976 10.5112V11.9927C15.976 11.9971 15.9765 12.0014 15.9766 12.0057H15.4983C15.4985 12.0013 15.499 11.9971 15.499 11.9927V10.0433C15.499 9.76771 15.2755 9.54427 14.9999 9.54427C14.7243 9.54427 14.5009 9.76771 14.5009 10.0433V11.9927C14.5009 11.9971 14.5014 12.0014 14.5015 12.0057H13.979C13.9792 12.0013 13.9797 11.9971 13.9797 11.9927V10.5112C13.9797 10.2356 13.7562 10.0121 13.4806 10.0121C13.205 10.0121 12.9816 10.2356 12.9816 10.5112V11.9927C12.9816 11.9971 12.9821 12.0014 12.9822 12.0057H12.4825V8.99843H17.4731ZM12.4827 13.0038H17.4731V29.0018H12.4827V13.0038Z" fill="#FFD676"/>
<rect x="12" y="13" width="6" height="16" fill="#FFD676"/>
</svg>
