<svg width="30" height="30" viewBox="0 0 30 30" fill="none" xmlns="http://www.w3.org/2000/svg">
<g clip-path="url(#clip0)">
<path d="M29.414 23.4935C24.5205 23.4935 19.7177 25.5008 16.2369 29.0007C16.0084 29.2302 16.0096 29.6012 16.2389 29.8292C16.3534 29.943 16.5026 29.9997 16.6523 29.9997C16.8027 29.9997 16.953 29.9423 17.0677 29.8271C20.3302 26.5468 24.8302 24.6654 29.414 24.6654C29.7377 24.6654 30 24.4031 30 24.0795C30 23.7561 29.7377 23.4935 29.414 23.4935Z" fill="#FFD676"/>
<path d="M8.39516 25.9802C12.25 20.9541 17.8301 17.4644 23.9875 16.1565L23.9907 16.1559C25.7602 15.7803 27.5768 15.5846 29.4141 15.5846C29.7375 15.5846 30 15.322 30 14.9986C30 14.675 29.7375 14.4127 29.4141 14.4127C27.748 14.4127 26.0884 14.5651 24.4569 14.8634V13.5986C26.5748 11.8057 27.7373 9.45648 27.7373 6.95481C27.7373 4.36821 26.4947 1.94458 24.2381 0.130238C24.0237 -0.0421104 23.7181 -0.0421104 23.5036 0.130238C21.2473 1.94458 20.0045 4.36821 20.0045 6.95481C20.0045 9.45648 21.1672 11.8057 23.2848 13.5986V15.103C22.1716 15.3564 21.0743 15.6793 19.9999 16.0682V12.6375C19.9999 12.4764 19.9349 12.3306 19.8296 12.2246L16.5484 8.92365C16.4383 8.8131 16.2888 8.75084 16.1327 8.75084H9.43359C9.27773 8.75084 9.12804 8.8131 9.01817 8.92365L5.73692 12.2244C5.63164 12.3303 5.56641 12.4764 5.56641 12.6377V14.8753C5.15808 14.8004 4.74792 14.7345 4.33594 14.6782V12.5894C5.93742 11.2118 6.8161 9.41506 6.8161 7.50092C6.8161 5.50118 5.85754 3.62938 4.11713 2.22977C3.90266 2.05742 3.59734 2.05742 3.38287 2.22977C1.64246 3.62915 0.683899 5.50118 0.683899 7.50092C0.683899 9.41483 1.56258 11.2116 3.16406 12.5892V14.5434C2.30965 14.4635 1.44951 14.4223 0.585938 14.4223C0.262299 14.4223 0 14.6846 0 15.0082C0 15.3319 0.262299 15.5942 0.585938 15.5942C5.27115 15.5942 9.85382 16.8338 13.8938 19.1856C12.9259 19.8434 12.0014 20.5618 11.1262 21.3352C7.85294 19.6676 4.216 18.7875 0.585938 18.7875C0.262527 18.7875 0 19.0498 0 19.3735C0 19.6971 0.262527 19.9594 0.585938 19.9594C3.88893 19.9594 7.19856 20.7275 10.2054 22.1862C9.31458 23.0479 8.4819 23.9699 7.71355 24.9445C5.43434 23.9886 3.03886 23.5043 0.585938 23.5043C0.262527 23.5043 0 23.7666 0 24.0903C0 24.4139 0.262527 24.6762 0.585938 24.6762C2.7832 24.6762 4.93149 25.0928 6.98364 25.9131C6.57875 26.4757 6.194 27.0536 5.83214 27.6469L4.93927 29.1097C4.77058 29.3857 4.85802 29.7464 5.13405 29.9149C5.22949 29.9732 5.33478 30.0009 5.43892 30.0009C5.63622 30.0009 5.82916 29.9009 5.93948 29.7201L6.83235 28.2573C7.2979 27.4944 7.80098 26.7604 8.33725 26.0557C8.35831 26.0323 8.37799 26.0074 8.39516 25.9802ZM21.1766 6.95481C21.1766 4.87221 22.1294 2.89948 23.871 1.35361C25.6126 2.89948 26.5654 4.87221 26.5654 6.95481C26.5654 8.78998 25.8247 10.5402 24.4569 11.9879V7.50092C24.4569 7.17728 24.1946 6.91498 23.871 6.91498C23.5474 6.91498 23.2851 7.17728 23.2851 7.50092V11.9879C21.917 10.5402 21.1766 8.78998 21.1766 6.95481ZM1.85577 7.50092C1.85577 6.00632 2.5248 4.5868 3.75 3.45887C4.9752 4.58657 5.64423 6.00632 5.64423 7.50092C5.64423 8.73619 5.18669 9.92043 4.33594 10.9312V7.03217C4.33594 6.70853 4.07364 6.44623 3.75 6.44623C3.42659 6.44623 3.16406 6.70853 3.16406 7.03217V10.9312C2.31331 9.92043 1.85577 8.73619 1.85577 7.50092ZM18.0054 12.0515L16 9.5L10.8424 9.92272H15.8892L18.0054 12.0515ZM9.43359 10.1678L11.3063 12.0515H7.56111L9.43359 10.1678ZM6.73828 13.2234H12.1289V16.9496C11.8572 16.8246 11.5839 16.7038 11.3086 16.5878V14.6198C11.3086 14.2964 11.0463 14.0339 10.7227 14.0339H8.14453C7.82112 14.0339 7.55859 14.2964 7.55859 14.6198V15.3165C7.28622 15.2456 7.01294 15.1783 6.73828 15.1156V13.2234ZM10.1367 16.1254C9.67209 15.9542 9.20334 15.7954 8.73047 15.6496V15.2058L8.5 16L10.1367 16.1254ZM13.3008 17.523V13.2234H18.8283V16.523C17.8246 16.9389 16.8439 17.4136 15.8931 17.9473C15.5891 18.1178 15.2888 18.295 14.992 18.4767C14.4381 18.1384 13.8741 17.8203 13.3008 17.523Z" fill="#FFD676"/>
<path d="M23.871 5.85938C24.025 5.85938 24.1763 5.79666 24.2853 5.68748C24.3942 5.57854 24.4569 5.42747 24.4569 5.27344C24.4569 5.11917 24.3944 4.96811 24.2853 4.85916C24.1763 4.74998 24.025 4.6875 23.871 4.6875C23.717 4.6875 23.5657 4.74998 23.457 4.85916C23.3478 4.96811 23.2851 5.11917 23.2851 5.27344C23.2851 5.42747 23.3478 5.57854 23.457 5.68748C23.5657 5.79643 23.717 5.85938 23.871 5.85938Z" fill="#FFD676"/>
</g>
<defs>
<clipPath id="clip0">
<rect width="30" height="30" fill="white"/>
</clipPath>
</defs>
</svg>
