<svg width="29" height="29" viewBox="0 0 29 29" fill="none" xmlns="http://www.w3.org/2000/svg">
<g clip-path="url(#clip0)">
<path d="M27.8422 21.5389C27.8481 21.3683 27.8519 21.1991 27.8654 21.0648C27.9017 20.698 27.8654 20.1522 27.7176 19.7432C27.5703 19.3431 27.5703 19.0497 27.3162 18.761C27.0592 18.468 27.3162 17.9518 27.3525 17.4799C27.3888 17.0029 27.2816 16.639 27.3525 16.2722C27.4264 15.9054 27.6079 15.4694 27.8654 14.8856C28.1199 14.2989 28 13 28 12C28 11.2405 27.7176 11.3352 27.8291 11.1875C27.9405 11.0423 28.0845 10.1647 28.0845 9.94439C28.0845 9.72405 28.3415 8.69917 28.5585 8.3733C28.7784 8.04405 28.0845 7.30107 28.0845 7.30107C28.0845 7.30107 28.1959 7.3308 27.683 7.16541C27.2411 7.16537 26.7411 7.44506 26.4106 7.66541C26.0826 7.88448 24.6515 8.00775 24.2501 8.3733C23.8487 8.73715 22.7774 9.98685 22.4106 10.1654C22.0438 10.3503 21.3004 13.7986 21.4106 14.1654C21.5001 14.4659 21.9803 18.8627 22.1939 21.5389L16.2692 21.5401C16.1683 19.1421 16.4085 12.2301 16.2692 11.1875C16.0936 9.90809 15.52 8.33235 15.52 7.92713C15.52 7.52781 15.52 6.53966 15.2165 6.49998C14.9138 6.46537 14.6534 6.24798 14.4807 6.49998C14.3047 6.75704 11.6995 9.391 11.5695 9.71856C11.4424 10.0499 11.4424 10.4893 11.3985 10.9271C11.355 11.366 11.7011 19.9952 11.6585 20.362C11.6361 20.541 11.6585 21.0594 11.6851 21.5393L7.41058 21.5401V15.6655C7.41058 15.6655 5.33617 12.1326 5.17788 11.9245C5.02128 11.7172 4.97653 11.754 4.50335 11.754C4.02932 11.754 2.32991 13.0541 2.32991 13.0541C2.32991 13.0541 2.21383 13.3913 2.20286 13.9093C2.1999 14.3077 2.51057 19.3376 2.6486 21.5393H0.410583L0.499989 22H30V21.5393L27.8422 21.5389Z" fill="#FFD676"/>
</g>
<defs>
<clipPath id="clip0">
<rect width="29" height="29" fill="white"/>
</clipPath>
</defs>
</svg>
