<svg width="31" height="30" viewBox="0 0 31 30" fill="none" xmlns="http://www.w3.org/2000/svg">
<path d="M29.1336 28.4004C28.7469 28.0137 28.1844 27.8672 27.6629 28.0078L28.1551 27.4219C28.5242 27.0059 28.6063 26.4141 28.3719 25.9102C28.0965 25.3359 27.5106 24.9844 26.8719 25.002H15.5047V23.0039H25.7C26.5262 23.0039 28.1551 23.0039 28.1551 23.0039L26.9715 20.707L23.7196 15.5039L15.4989 2.35547V0.498047C15.4989 0.439453 15.4871 0.375 15.4637 0.322266C15.4578 0.304688 15.4461 0.287109 15.4344 0.269531C15.4168 0.234375 15.3934 0.199219 15.3699 0.169922C15.3582 0.152344 15.3407 0.140625 15.3231 0.123047C15.2938 0.0996094 15.2645 0.0761719 15.2293 0.0585938C15.2117 0.046875 15.1883 0.0410156 15.1707 0.0292969C15.159 0.0234375 15.1532 0.0175781 15.1414 0.0175781C15.1063 0.00585938 15.0711 0.00585938 15.0301 0.00585938C15.0184 0.00585938 15.0067 0 14.9949 0H14.9891C14.9305 0 14.8719 0.0117188 14.8133 0.0351562C14.7957 0.0410156 14.784 0.0527344 14.7664 0.0585938C14.7313 0.0761719 14.6961 0.0996094 14.6668 0.128906C14.6492 0.146484 14.6375 0.158203 14.6199 0.175781C14.6082 0.1875 14.5907 0.205078 14.5789 0.222656L1.10237 20.6719C0.645338 21.3633 0.838697 22.2949 1.5301 22.752C1.7762 22.916 2.06331 22.998 2.35628 22.998H13.2723C13.3192 22.998 13.3602 22.9922 13.4071 22.9805C13.4364 22.9922 13.4715 22.998 13.5067 22.998H14.5086V24.9961H2.63167C1.99885 24.9785 1.28125 24.9434 1 25.5117C0.765625 26.0156 1.39684 26.6074 1.76598 27.0234L2.76598 28.0234C2.41441 28.0527 1.76598 27.5234 0.867994 28.3945L0.141431 29.1504C-0.0519282 29.3496 -0.0460688 29.666 0.15315 29.8594C0.352369 30.0527 0.668775 30.0469 0.862134 29.8477L1.59456 29.0918C1.78792 28.8926 2.11018 28.8867 2.3094 29.0859C2.31526 29.0918 2.32112 29.0977 2.32698 29.1035C2.58479 29.3613 2.92463 29.5195 3.28792 29.543C3.31721 29.5547 3.35237 29.5605 3.38753 29.5664C3.42268 29.5664 3.4637 29.5605 3.49885 29.5488C3.87971 29.5312 4.23713 29.3672 4.50081 29.0977C4.69417 28.8984 5.01643 28.8926 5.21565 29.0918C5.22151 29.0977 5.22737 29.1035 5.23323 29.1094C5.83088 29.707 6.79768 29.707 7.38948 29.1094C7.39534 29.1035 7.39534 29.1035 7.4012 29.0977C7.59456 28.8984 7.91682 28.8926 8.11604 29.0918C8.1219 29.0977 8.12776 29.1035 8.13362 29.1094C8.4676 29.4668 8.95979 29.6309 9.44026 29.5488C9.76839 29.502 10.0731 29.3438 10.3016 29.1035C10.4949 28.9043 10.8114 28.8984 11.0106 29.0977C11.0164 29.1035 11.0223 29.1094 11.0282 29.1152C11.6258 29.7129 12.5926 29.7129 13.1903 29.1152C13.1961 29.1094 13.1961 29.1094 13.202 29.1035C13.3953 28.9043 13.7117 28.8984 13.911 29.0977C13.9168 29.1035 13.9227 29.1094 13.9285 29.1152C14.5262 29.7129 15.493 29.7129 16.0907 29.1152C16.0965 29.1094 16.0965 29.1094 16.1024 29.1035C16.2957 28.9043 16.618 28.8984 16.8172 29.0977C16.8231 29.1035 16.8289 29.1094 16.8348 29.1152C17.4324 29.7129 18.3992 29.7129 18.991 29.1152C18.9969 29.1094 18.9969 29.1094 19.0028 29.1035C19.1961 28.9043 19.5125 28.8984 19.7117 29.0918C19.7176 29.0977 19.7235 29.1035 19.7293 29.1094C19.952 29.3438 20.2449 29.4961 20.5672 29.543C21.0594 29.6309 21.5575 29.4609 21.8973 29.0977C22.0907 28.8984 22.4071 28.8926 22.6063 29.0859C22.6121 29.0918 22.618 29.0977 22.6239 29.1035C23.2215 29.7012 24.1883 29.7012 24.786 29.1035C24.7918 29.0977 24.7918 29.0977 24.7977 29.0918C24.991 28.8926 25.3074 28.8867 25.5067 29.0859C25.5125 29.0918 25.5184 29.0977 25.5242 29.1035C25.6707 29.25 25.8407 29.3672 26.034 29.4434C26.0457 29.4492 26.0516 29.4492 26.0633 29.4492C26.6317 29.666 27.2703 29.5254 27.6981 29.0918C27.8973 28.8926 28.2196 28.8926 28.4188 29.0918L29.1512 29.8477C29.3446 30.0469 29.661 30.0527 29.8602 29.8594C30.0594 29.666 30.0653 29.3496 29.8719 29.1504L29.1336 28.4004ZM15.4989 4.24219L26.5 22.002L16.5008 21.9961H15.4989V4.24219ZM8.25081 19.998C7.00862 19.998 6.00081 18.9902 6.00081 17.748C6.00081 16.5059 7.00862 15.498 8.25081 15.498C9.493 15.498 10.5008 16.5059 10.5008 17.748C10.5008 18.9902 9.493 19.998 8.25081 19.998ZM14.5028 22.002H13.6356C12.7391 19.2891 12.2762 16.4531 12.2762 13.5996C12.2703 9.9375 13.0262 6.31055 14.4969 2.95898V22.002H14.5028Z" fill="#FFD676"/>
</svg>
