<svg width="30" height="30" viewBox="0 0 30 30" fill="none" xmlns="http://www.w3.org/2000/svg">
<path d="M29.0536 25.4004H28.4385H1.56152H0.946364C0.423737 25.4004 0 25.8241 0 26.3468C0 26.8694 0.423737 27.2931 0.946364 27.2931H2.50788H27.4921H29.0536C29.5763 27.2931 30 26.8694 30 26.3468C30 25.8241 29.5763 25.4004 29.0536 25.4004Z" fill="#FFD676"/>
<path d="M3.32031 12.9083V22.3035H2.71546C2.20152 22.3035 1.78485 22.7201 1.78485 23.2341V23.8389H28.2135V23.2341C28.2135 22.7201 27.7969 22.3035 27.2829 22.3035H26.6782V12.9083H21.746V22.3035H17.4654V12.9083H12.533V22.3035H8.25243V12.9083H3.32031Z" fill="#FFD676"/>
<path d="M1.87708 11.3468H28.1212C28.1218 11.3467 28.1223 11.3467 28.123 11.3468C28.6371 11.3468 29.0536 10.9301 29.0536 10.4162C29.0536 10.0403 28.8308 9.71638 28.51 9.56951L15.4264 2.81062C15.1585 2.67234 14.84 2.67234 14.5721 2.81062L1.44991 9.58941C1.06849 9.78648 0.871421 10.2188 0.972835 10.636C1.07415 11.0531 1.44768 11.3468 1.87708 11.3468Z" fill="#FFD676"/>
</svg>
