<svg width="30" height="30" viewBox="0 0 30 30" fill="none" xmlns="http://www.w3.org/2000/svg">
<g clip-path="url(#clip0)">
<path d="M10.1068 13.6547H19.8531C19.986 13.6547 20.1085 13.5794 20.1687 13.46C20.229 13.3405 20.2164 13.1977 20.1366 13.0902L15.32 6.58666V4.09689L20.797 2.69381C20.8614 2.67772 20.9071 2.61958 20.9071 2.55306C20.9071 2.48667 20.8615 2.42847 20.797 2.41232L15.319 1.00837V0.340616C15.319 0.152606 15.1663 0 14.9783 0C14.7904 0.000496886 14.6378 0.152606 14.6378 0.340616L14.6388 6.58821L9.82337 13.0902C9.74331 13.1977 9.73089 13.3405 9.79107 13.46C9.85126 13.5794 9.9738 13.6547 10.1068 13.6547Z" fill="#FFD676"/>
<path d="M28.2953 10.9862C28.0433 10.9862 27.8391 11.1904 27.8391 11.4424V12.5881H26.6387V11.4424C26.6387 11.1904 26.4345 10.9862 26.1825 10.9862H25.0768C24.8249 10.9862 24.6206 11.1904 24.6206 11.4424V12.5881H23.4223V11.4424C23.4223 11.1904 23.2181 10.9862 22.9661 10.9862H21.8591C21.6073 10.9862 21.4032 11.1901 21.4029 11.4419L21.391 22.9055H19.0295V15.0389C19.0295 14.8255 18.8571 14.6532 18.6442 14.6532H11.3156C11.1027 14.6532 10.9302 14.8255 10.9302 15.0389V22.9055H8.60935L8.615 18.1111C8.61513 17.9901 8.56712 17.8739 8.48159 17.7882C8.39606 17.7026 8.27992 17.6544 8.15886 17.6544H7.03211C6.78013 17.6544 6.57591 17.8586 6.57591 18.1106V19.3197H5.37742V18.1743C5.37742 17.9219 5.17282 17.7178 4.92153 17.7178H3.81552C3.56416 17.7178 3.35956 17.9219 3.35956 18.1743V19.3197H2.15915V18.1743C2.15915 17.9219 1.95462 17.7178 1.70319 17.7178H0.597187C0.344831 17.7178 0.141294 17.9213 0.140238 18.1732L0.121605 30.0001H29.8642L29.8784 11.4428C29.8785 11.3218 29.8304 11.2057 29.7449 11.1201C29.6594 11.0344 29.5433 10.9863 29.4222 10.9863H28.2953V10.9862ZM5.72008 24.5729C5.72008 24.7864 5.54779 24.9587 5.33481 24.9587H3.40317C3.19031 24.9587 3.01802 24.7864 3.01802 24.5729V22.8501C3.01802 22.1039 3.62229 21.499 4.36899 21.499C5.11463 21.499 5.72008 22.1039 5.72008 22.8501V24.5729ZM16.3304 20.3416C16.3304 20.555 16.158 20.7274 15.9452 20.7274H14.0135C13.8006 20.7274 13.6282 20.555 13.6282 20.3416V18.6187C13.6282 17.8726 14.2326 17.2677 14.9794 17.2677C15.7249 17.2677 16.3304 17.8726 16.3304 18.6187V20.3416ZM26.9822 17.8414C26.9822 18.0548 26.81 18.2272 26.5971 18.2272H24.6654C24.4524 18.2272 24.2802 18.0548 24.2802 17.8414V16.1185C24.2802 15.3724 24.8845 14.7674 25.6312 14.7674C26.3769 14.7674 26.9822 15.3724 26.9822 16.1185V17.8414Z" fill="#FFD676"/>
</g>
<defs>
<clipPath id="clip0">
<rect width="30" height="30" fill="white"/>
</clipPath>
</defs>
</svg>
