<svg width="21" height="30" viewBox="0 0 21 30" fill="none" xmlns="http://www.w3.org/2000/svg">
<path d="M19.4364 9.25003C19.2438 9.04257 19.0374 8.85178 18.8203 8.6763C18.9291 8.40073 18.9895 8.10104 18.9895 7.78733C18.9895 6.44771 17.8996 5.35777 16.5599 5.35777C16.481 5.35777 16.403 5.36186 16.326 5.36923C16.081 2.36794 13.5619 0 10.4985 0C8.42958 0 6.60941 1.08088 5.5694 2.70665C5.34559 2.66891 5.1161 2.64823 4.88171 2.64823C2.60761 2.64823 0.757474 4.49837 0.757474 6.77247C0.757474 7.69478 1.06181 8.54721 1.57529 9.23489C1.57048 9.24002 1.56543 9.24482 1.5607 9.25003C0.554263 10.3341 0 11.7463 0 13.2264C0 16.4514 2.62372 19.0751 5.84873 19.0751C6.15259 19.0751 6.45219 19.0517 6.74579 19.007L8.90427 22.3418L7.85239 29.1581C7.81882 29.3767 7.87603 29.5853 8.01354 29.7456C8.15232 29.9074 8.36187 30.0002 8.58823 30.0002H12.4367C12.663 30.0002 12.8724 29.9074 13.0113 29.7457C13.1488 29.5854 13.206 29.3767 13.1723 29.158L12.1383 22.4563L14.3608 19.0225C14.6193 19.057 14.8821 19.0751 15.1483 19.0751C18.3733 19.0751 20.997 16.4514 20.997 13.2264C20.997 11.7463 20.4427 10.334 19.4364 9.25003ZM10.5583 20.473L9.04297 18.1318C9.59523 17.7714 10.0881 17.315 10.4985 16.7753C10.9298 17.3424 11.4523 17.8171 12.0389 18.1856L10.5583 20.473Z" fill="#FFD676"/>
</svg>
