<svg width="30" height="30" viewBox="0 0 30 30" fill="none" xmlns="http://www.w3.org/2000/svg">
<path d="M20.5554 7H9.44459C9.19895 7 9 6.77592 9 6.49977C9 6.22362 9.19895 6 9.44459 6H20.5554C20.8008 6 21 6.22362 21 6.49977C21 6.77592 20.8008 7 20.5554 7Z" fill="#FFD676"/>
<path d="M25.5482 29H4.45163C4.20208 29 4 28.7764 4 28.5002C4 28.2241 4.20208 28 4.45163 28H25.5482C25.7979 28 26 28.2241 26 28.5002C26 28.7764 25.7979 29 25.5482 29Z" fill="#FFD676"/>
<path d="M23.1365 28.9526C22.9246 28.9526 22.7311 28.8105 22.6752 28.596L19.3989 16.0263C19.3884 15.9869 19.3836 15.9463 19.3836 15.9056V6.90267C19.3836 6.63944 19.597 6.42627 19.86 6.42627C20.1233 6.42627 20.3369 6.63944 20.3369 6.90267V15.8448L23.598 28.3553C23.6643 28.6102 23.5117 28.8704 23.2572 28.9371C23.2165 28.9476 23.1763 28.9526 23.1365 28.9526Z" fill="#FFD676"/>
<path d="M19.5455 7H10.4543C10.2749 7 10.1121 6.89268 10.0394 6.7261C9.96622 6.55973 9.99665 6.3652 10.1169 6.22973L14.6175 1.15261C14.7033 1.05588 14.825 1.00085 14.9528 1H14.9553C15.0824 1 15.2037 1.05419 15.2898 1.14944L19.8802 6.22613C20.0021 6.36118 20.0342 6.55634 19.9617 6.72398C19.8889 6.89162 19.726 7 19.5455 7ZM11.475 6.07712H18.5116L14.9528 6.22973L11.475 6.07712Z" fill="#FFD676"/>
<path d="M6.95228 28.9526C6.91162 28.9526 6.87008 28.9474 6.82875 28.9362C6.57426 28.868 6.42384 28.6065 6.49184 28.3525L9.84569 15.8429V6.90267C9.84569 6.63944 10.0591 6.42627 10.3223 6.42627C10.5858 6.42627 10.7992 6.63944 10.7992 6.90267V15.9056C10.7992 15.9474 10.7937 15.9889 10.7828 16.0291L7.41251 28.5991C7.35544 28.812 7.16261 28.9526 6.95228 28.9526Z" fill="#FFD676"/>
<path d="M19.8561 9.95307H10.3223C10.0591 9.95307 9.8457 9.73947 9.8457 9.47623C9.8457 9.213 10.0591 8.99939 10.3223 8.99939H19.8561C20.1193 8.99939 20.3327 9.213 20.3327 9.47623C20.3327 9.73947 20.1193 9.95307 19.8561 9.95307Z" fill="#FFD676"/>
<path d="M19.5455 16H10.4545C10.2035 16 10 15.3281 10 14.5C10 13.6719 10.2035 13 10.4545 13H19.5455C19.7965 13 20 13.6719 20 14.5C20 15.3281 19.7965 16 19.5455 16Z" fill="#FFD676"/>
<path d="M7.85699 28.8527C7.73958 28.8527 7.62196 28.8099 7.52969 28.7226C7.33839 28.5418 7.32964 28.2401 7.51045 28.049L19.5093 15.3457C19.6904 15.1539 19.9921 15.1459 20.1834 15.3267C20.3749 15.5075 20.3836 15.8092 20.2026 16.0003L8.20374 28.7034C8.10995 28.8029 7.98336 28.8527 7.85699 28.8527Z" fill="#FFD676"/>
<path d="M22.4766 28.8527C22.3509 28.8527 22.2259 28.8033 22.1319 28.7058L9.97776 16.0027C9.79585 15.8125 9.80263 15.5108 9.99284 15.3289C10.1828 15.1472 10.4843 15.1537 10.6669 15.3435L22.821 28.0468C23.0029 28.2368 22.9963 28.5388 22.8061 28.7207C22.7136 28.8088 22.5951 28.8527 22.4766 28.8527Z" fill="#FFD676"/>
<path d="M12.6729 13.7337C12.4096 13.7337 12.1964 13.5201 12.1964 13.2569V9.47623C12.1964 9.213 12.4096 8.99939 12.6729 8.99939C12.9363 8.99939 13.1497 9.213 13.1497 9.47623V13.2569C13.1497 13.5201 12.9363 13.7337 12.6729 13.7337Z" fill="#FFD676"/>
<path d="M17.44 13.7337C17.1767 13.7337 16.9631 13.5201 16.9631 13.2569V9.47623C16.9631 9.213 17.1767 8.99939 17.44 8.99939C17.7032 8.99939 17.9164 9.213 17.9164 9.47623V13.2569C17.9164 13.5201 17.7032 13.7337 17.44 13.7337Z" fill="#FFD676"/>
<path d="M15.0566 13.7337C14.7932 13.7337 14.5798 13.5201 14.5798 13.2569V9.47623C14.5798 9.213 14.7932 8.99939 15.0566 8.99939C15.3199 8.99939 15.533 9.213 15.533 9.47623V13.2569C15.533 13.5201 15.3199 13.7337 15.0566 13.7337Z" fill="#FFD676"/>
</svg>
